<svg width="100" height="24" viewBox="0 0 123 24" fill="none" xmlns="http://www.w3.org/2000/svg">
<g clip-path="url(#clip0_1_1274)">
<path d="M14.268 4.51039L7.134 9.0203L14.268 13.5302L7.134 18.0401L0 13.5058L7.134 8.99592L0 4.51039L7.134 0.000488281L14.268 4.51039ZM7.0971 19.4906L14.2311 14.9807L21.3651 19.4906L14.2311 24.0005L7.0971 19.4906ZM14.268 13.5058L21.402 8.99592L14.268 4.51039L21.3651 0.000488281L28.4991 4.51039L21.3651 9.0203L28.4991 13.5302L21.3651 18.0401L14.268 13.5058Z" fill="#B7BEC9"/>
<path d="M34.0957 4.51043H39.8644C43.5421 4.51043 46.5802 6.61912 46.5802 11.4337V12.4454C46.5802 17.2966 43.7389 19.4784 39.9751 19.4784H34.0957V4.51043ZM37.3183 7.22856V16.7481H39.7906C41.8816 16.7481 43.2838 15.3951 43.2838 12.3845V11.5922C43.2838 8.58153 41.8078 7.22856 39.6799 7.22856H37.3183ZM48.2899 7.37483H50.8729L51.2911 10.1905C51.7831 8.27681 53.0377 7.25294 55.3132 7.25294H56.1127V10.483H54.7843C52.1644 10.483 51.5248 11.385 51.5248 13.9447V19.515H48.3391V7.37483H48.2899ZM56.7523 13.6887V13.3474C56.7523 9.28849 59.3722 7.07011 62.9392 7.07011C66.58 7.07011 69.1261 9.28849 69.1261 13.3474V13.6887C69.1261 17.6745 66.6538 19.8197 62.9392 19.8197C58.9909 19.7832 56.7523 17.6867 56.7523 13.6887ZM65.8666 13.6521V13.3474C65.8666 11.0925 64.7227 9.73948 62.9023 9.73948C61.1188 9.73948 59.938 10.9828 59.938 13.3474V13.6521C59.938 15.8339 61.0819 17.0772 62.9023 17.0772C64.7227 17.0407 65.8666 15.8339 65.8666 13.6521ZM70.7989 7.37483H73.4557L73.7632 9.66635C74.4028 8.13055 75.7681 7.07011 77.7853 7.07011C80.8972 7.07011 82.9513 9.28849 82.9513 13.3962V13.7375C82.9513 17.7232 80.6758 19.8319 77.7853 19.8319C75.8542 19.8319 74.5258 18.9665 73.8739 17.577V23.708H70.762L70.7989 7.37483ZM79.7164 13.6521V13.384C79.7164 10.9706 78.4618 9.77605 76.789 9.77605C75.0055 9.77605 73.8247 11.129 73.8247 13.384V13.6156C73.8247 15.7608 74.9686 17.1138 76.7521 17.1138C78.5848 17.0772 79.7164 15.9193 79.7164 13.6521ZM87.6622 17.2722L87.3916 19.4906H84.661V3.31592H87.7729V9.52008C88.4617 7.93552 89.827 7.07011 91.7581 7.07011C94.6855 7.10668 96.8503 9.10566 96.8503 13.128V13.5059C96.8503 17.5282 94.7962 19.8319 91.6843 19.8319C89.6302 19.7832 88.3018 18.8446 87.6622 17.2722ZM93.5785 13.5059V13.2011C93.5785 10.9828 92.3608 9.73948 90.6511 9.73948C88.9045 9.73948 87.6868 11.129 87.6868 13.2377V13.5059C87.6868 15.7608 88.8676 17.0772 90.6142 17.0772C92.4838 17.0772 93.5785 15.9193 93.5785 13.5059ZM98.2156 13.6887V13.3474C98.2156 9.28849 100.835 7.07011 104.402 7.07011C108.043 7.07011 110.589 9.28849 110.589 13.3474V13.6887C110.589 17.6745 108.08 19.8197 104.402 19.8197C100.454 19.7832 98.2156 17.6867 98.2156 13.6887ZM107.354 13.6521V13.3474C107.354 11.0925 106.211 9.73948 104.39 9.73948C102.607 9.73948 101.426 10.9828 101.426 13.3474V13.6521C101.426 15.8339 102.57 17.0772 104.39 17.0772C106.223 17.0407 107.354 15.8339 107.354 13.6521ZM114.759 13.2011L110.466 7.37483H114.144L116.616 11.0193L119.126 7.37483H122.766L118.412 13.1646L123 19.4906H119.396L116.592 15.4683L113.861 19.4906H110.097L114.759 13.2011Z" fill="#B7BEC9"/>
</g>
<defs>
<clipPath id="clip0_1_1274">
<rect width="123" height="24" fill="white" transform="translate(0 0.000488281)"/>
</clipPath>
</defs>
</svg>
