<svg width="27" height="37" viewBox="0 0 27 37" fill="none" xmlns="http://www.w3.org/2000/svg">
<g clip-path="url(#clip0_1_1257)">
<path d="M20.2103 0.53957C16.7916 -0.368085 13.1656 -0.131909 9.89649 1.21136C6.62737 2.55463 3.89834 4.92968 2.13392 7.96708C0.369505 11.0045 -0.331392 14.5339 0.140259 18.0064C0.61191 21.4789 2.22967 24.6998 4.74188 27.168L22.6282 9.46584C23.297 8.80339 23.7779 7.97837 24.0225 7.07368C24.2672 6.16899 24.267 5.2165 24.0219 4.31191C23.7769 3.40732 23.2957 2.5825 22.6266 1.92033C21.9575 1.25816 21.1242 0.781955 20.2103 0.53957Z" fill="url(#paint0_linear_1_1257)"/>
<path d="M6.78802 36.4601C10.2089 37.3707 13.8379 37.1359 17.1099 35.7925C20.382 34.449 23.1135 32.0723 24.8789 29.0323C26.6444 25.9923 27.3448 22.4597 26.871 18.9847C26.3972 15.5097 24.7759 12.2873 22.2595 9.81934L4.37321 27.5338C3.70441 28.196 3.22343 29.0208 2.9786 29.9253C2.73376 30.8298 2.7337 31.7822 2.9784 32.6867C3.2231 33.5913 3.70396 34.4161 4.37266 35.0785C5.04137 35.7408 5.87438 36.2173 6.78802 36.4601Z" fill="url(#paint1_linear_1_1257)"/>
<path style="mix-blend-mode:multiply" d="M22.2595 9.81934L4.37321 27.5338C3.70441 28.196 3.22343 29.0208 2.9786 29.9253C2.73376 30.8298 2.7337 31.7822 2.9784 32.6867C3.2231 33.5913 3.70396 34.4161 4.37266 35.0785C5.04137 35.7408 5.87438 36.2173 6.78802 36.4601C8.70069 36.965 10.691 37.1169 12.6592 36.9081C4.81649 29.4393 22.2595 9.81934 22.2595 9.81934Z" fill="url(#paint2_linear_1_1257)"/>
<g style="mix-blend-mode:multiply">
<path style="mix-blend-mode:multiply" d="M6.45968 36.3625C3.92087 28.5807 19.1692 12.9099 21.8599 10.228L4.37346 27.5344C3.72515 28.1763 3.25295 28.9712 3.00153 29.8441C2.75011 30.7169 2.72777 31.6389 2.93662 32.5227C3.14548 33.4065 3.57863 34.2229 4.1951 34.8948C4.81158 35.5667 5.59101 36.0719 6.45968 36.3625Z" fill="url(#paint3_linear_1_1257)"/>
<path style="mix-blend-mode:multiply" d="M22.2012 9.89033C22.2198 9.8699 22.2394 9.85044 22.2601 9.83203L22.2012 9.89033Z" fill="url(#paint4_linear_1_1257)"/>
</g>
<path style="mix-blend-mode:screen" d="M23.94 7.36475L4.7207 27.1566L22.6287 9.46667C23.2269 8.878 23.6762 8.15781 23.94 7.36475Z" fill="url(#paint5_radial_1_1257)"/>
</g>
<defs>
<linearGradient id="paint0_linear_1_1257" x1="16.4099" y1="-16.6931" x2="10.5873" y2="20.6657" gradientUnits="userSpaceOnUse">
<stop stop-color="#0096D9"/>
<stop offset="1" stop-color="#00C198"/>
</linearGradient>
<linearGradient id="paint1_linear_1_1257" x1="9.13463" y1="13.6181" x2="18.5038" y2="32.4248" gradientUnits="userSpaceOnUse">
<stop stop-color="#002DD9"/>
<stop offset="1" stop-color="#00B2AB"/>
</linearGradient>
<linearGradient id="paint2_linear_1_1257" x1="23.8064" y1="-3.42432" x2="6.08179" y2="38.1714" gradientUnits="userSpaceOnUse">
<stop stop-color="#3482C0"/>
<stop offset="0.45" stop-color="#96BEDE"/>
<stop offset="0.83" stop-color="#E1EDF6"/>
<stop offset="1" stop-color="white"/>
</linearGradient>
<linearGradient id="paint3_linear_1_1257" x1="1361.37" y1="132.276" x2="-132.262" y2="2238.51" gradientUnits="userSpaceOnUse">
<stop stop-color="#3482C0"/>
<stop offset="0.45" stop-color="#96BEDE"/>
<stop offset="0.83" stop-color="#E1EDF6"/>
<stop offset="1" stop-color="white"/>
</linearGradient>
<linearGradient id="paint4_linear_1_1257" x1="25.673" y1="3.26857" x2="10.5949" y2="32.713" gradientUnits="userSpaceOnUse">
<stop stop-color="#569FA1"/>
<stop offset="0.36" stop-color="#97C4C5"/>
<stop offset="0.8" stop-color="#E2EEEF"/>
<stop offset="1" stop-color="white"/>
</linearGradient>
<radialGradient id="paint5_radial_1_1257" cx="0" cy="0" r="1" gradientUnits="userSpaceOnUse" gradientTransform="translate(21.5934 32.3822) scale(27.8184 27.5367)">
<stop stop-color="#FFFF00"/>
<stop offset="1"/>
</radialGradient>
<clipPath id="clip0_1_1257">
<rect width="27" height="37" fill="white" transform="translate(0 0.000488281)"/>
</clipPath>
</defs>
</svg>
